<?xml version="1.0" standalone="no"?>
<!DOCTYPE svg PUBLIC "-//W3C//DTD SVG 20010904//EN"
 "http://www.w3.org/TR/2001/REC-SVG-20010904/DTD/svg10.dtd">
<svg version="1.0" xmlns="http://www.w3.org/2000/svg"
 width="800.000000pt" height="800.000000pt" viewBox="0 0 800.000000 800.000000"
 preserveAspectRatio="xMidYMid meet">

<g transform="translate(0.000000,800.000000) scale(0.100000,-0.100000)"
fill="#000000" stroke="none">
<path d="M0 4000 l0 -4000 698 0 c674 1 695 1 647 18 -108 37 -208 120 -254
210 -54 107 -51 -143 -51 3772 0 3177 2 3623 15 3673 38 146 140 258 281 306
l59 20 -697 1 -698 0 0 -4000z"/>
<path d="M4796 7980 c28 -10 69 -29 90 -43 22 -14 476 -427 1010 -919 761
-703 976 -907 1001 -949 68 -114 63 114 63 -2929 0 -2981 3 -2806 -51 -2912
-46 -90 -146 -173 -254 -210 -48 -17 -27 -17 648 -18 l697 0 0 4000 0 4000
-1627 -1 c-1583 0 -1627 -1 -1577 -19z"/>
<path d="M1600 4000 l0 -3450 2400 0 2400 0 0 2420 0 2419 -857 3 -858 3 -72
27 c-99 36 -157 71 -228 139 -71 68 -116 139 -153 241 l-27 73 -3 788 -3 787
-1299 0 -1300 0 0 -3450z m938 404 c68 -33 123 -87 159 -156 25 -48 28 -63 28
-153 0 -118 -20 -171 -95 -245 -73 -73 -127 -95 -240 -95 -113 0 -162 18 -238
89 -101 94 -134 245 -83 377 70 183 292 270 469 183z m3372 -309 l0 -275
-1455 0 -1455 0 0 275 0 275 1455 0 1455 0 0 -275z m-3393 -777 c41 -15 74
-38 114 -77 70 -70 99 -141 99 -241 0 -214 -179 -368 -395 -339 -227 31 -357
283 -255 494 36 75 126 150 210 176 53 16 168 10 227 -13z m3393 -318 l0 -280
-1455 0 -1455 0 0 280 0 280 1455 0 1455 0 0 -280z m-3366 -789 c71 -35 122
-87 158 -160 19 -38 23 -62 23 -146 0 -95 -2 -103 -34 -163 -38 -70 -92 -120
-167 -154 -74 -34 -199 -32 -275 3 -111 52 -177 138 -199 257 -31 175 81 348
254 393 17 5 63 7 103 5 57 -2 86 -10 137 -35z m3366 -306 l0 -275 -1455 0
-1455 0 0 275 0 275 1455 0 1455 0 0 -275z"/>
<path d="M4760 6547 c0 -473 2 -577 14 -586 9 -8 181 -10 625 -9 l611 3 -566
530 c-312 292 -593 554 -625 583 l-59 54 0 -575z"/>
</g>
</svg>
